<svg xmlns="http://www.w3.org/2000/svg" fill="none" viewBox="0 0 28 28">
  <path fill="#fff" fill-rule="evenodd" d="M15.051 3.571q0 .04-.002.079h3.026c3.678 0 6.577 1.63 6.67 5.177.047 1.782-.817 2.57-1.49 3.185-.474.433-.853.78-.747 1.325.102.525.471.989.881 1.504.622.781 1.338 1.68 1.356 3.086.031 2.332 0 2.039 0 2.039 0 2.816-2.367 5.099-5.287 5.099h-4.494q.006.058.006.118c0 .65-.546 1.176-1.22 1.176s-1.22-.527-1.22-1.176q0-.06.006-.118H9.642c-.244 0-1.04-.038-1.022-.057-3.112-.316-5.43-1.956-5.513-5.12-.047-1.782.818-2.571 1.49-3.185.475-.434.854-.78.748-1.326-.102-.525-.472-.988-.882-1.504-.622-.78-1.337-1.68-1.356-3.085-.03-2.333 0-2.04 0-2.04 0-2.816 2.368-5.098 5.288-5.098h4.219l-.003-.079c0-.65.546-1.176 1.22-1.176s1.22.526 1.22 1.176" clip-rule="evenodd"/>
  <path fill="url(#a)" fill-rule="evenodd" d="M0 6.23C0 2.79 2.876 0 6.423 0h15.154C25.124 0 28 2.79 28 6.23v15.54c0 3.44-2.875 6.23-6.423 6.23H6.423C2.876 28 0 25.21 0 21.77zm15.01-1.82q0 .036-.002.07c-.037.547-.507.98-1.08.98s-1.043-.433-1.08-.98l-.003-.053V4.41c0-.58.485-1.05 1.083-1.05a1.1 1.1 0 0 1 .727.272c.115.102.208.227.27.37q.084.189.085.408m.937.07c-.038 1.05-.927 1.89-2.02 1.89q-.281-.001-.54-.071a1 1 0 0 1-.1-.036c-.066-.027-.127-.052-.19-.033a.7.7 0 0 0-.208.14l-.365.35s-.184.175-.148.245.289.07.289.07l5.278.03s.149.009.279-.03c.095-.028.117-.04.151-.056l.046-.02a2 2 0 0 1 .813-.169c1.096 0 1.985.862 1.985 1.925s-.889 1.925-1.985 1.925c-.594 0-1.044-.299-1.407-.7a2 2 0 0 1-.13-.169.6.6 0 0 0-.159-.181c-.108-.07-.65-.07-.65-.07H10.32s-.145 0-.253.07-.325.415-.325.742c0 .503.365.924.852 1.026v.001l2.154.94s.21.115.386.126a1 1 0 0 0 .323-.036l.064-.016A2.2 2.2 0 0 1 14 12.32c1.156 0 2.093.909 2.093 2.03 0 .027 0 .07.036.105s.233.126.233.126l1.639.714s.06.011.131.021c.055.007.115.014.162.014.04 0 .117-.02.213-.044a2.4 2.4 0 0 1 .566-.096c1.164 0 2.107.915 2.107 2.044v1.981c0 1.024-.856 1.855-1.912 1.855h-1.01c-.1 0-.289 0-.397.07l-2.018 1.782-.039.038s-.036.035-.036.07c0 .046.011.075.023.107l.02.055q.052.192.063.398h3.046c2.59 0 4.69-2.037 4.69-4.55 0 0 .028.262 0-1.82-.016-1.254-.65-2.056-1.203-2.753-.363-.46-.69-.874-.781-1.342-.095-.488.242-.796.663-1.183.596-.548 1.363-1.252 1.321-2.842-.083-3.164-2.654-4.62-5.917-4.62zM12.78 23.59a1 1 0 0 0-.006.105c0 .58.485 1.05 1.083 1.05s1.082-.47 1.082-1.05a1.07 1.07 0 0 0-1.082-1.05 1.07 1.07 0 0 0-1.078.945Zm-.941 0h-1.626c-.217 0-.923-.034-.907-.05-2.76-.283-4.817-1.746-4.89-4.57-.042-1.59.724-2.294 1.32-2.842.422-.387.758-.695.664-1.183-.09-.468-.418-.882-.782-1.342-.552-.697-1.186-1.499-1.203-2.753-.027-2.082 0-1.82 0-1.82 0-2.513 2.1-4.55 4.691-4.55h2.803q.008.226.065.433l.02.055c.011.032.022.06.022.107 0 .035-.036.07-.036.07l-.038.038-1.838 1.677c-.108.07-.298.07-.397.07h-1.01c-1.056 0-1.912.83-1.912 1.855v1.981c0 1.129.943 2.044 2.106 2.044.19 0 .405-.055.566-.096.096-.024.174-.044.214-.044.047 0 .107.007.161.014.072.01.132.021.132.021l1.639.714s.341.126.377.301a.32.32 0 0 1-.016.216c-.013.035-.028.075-.036.134q-.02.137-.02.28c0 1.121.937 2.03 2.093 2.03.474 0 .912-.153 1.263-.411l.008-.006a.5.5 0 0 1 .208-.108c.094-.022.25.07.25.07l1.641.715v.002c.487.102.852.523.852 1.026 0 .327-.217.672-.325.742s-.253.07-.253.07h-6.567s-.54 0-.65-.07c-.063-.04-.107-.106-.159-.181a2 2 0 0 0-.129-.169c-.364-.401-.813-.7-1.407-.7-1.096 0-1.985.862-1.985 1.925s.889 1.925 1.985 1.925c.29 0 .565-.06.813-.168l.046-.021a1 1 0 0 1 .151-.056c.13-.039.279-.03.279-.03l5.278.03s.253 0 .289.07-.148.245-.148.245l-.545.455s-.117.111-.21.14c-.062.02-.123-.006-.19-.033a1 1 0 0 0-.098-.036 2 2 0 0 0-.541-.071c-1.08 0-1.962.821-2.018 1.855" clip-rule="evenodd"/>
  <defs>
    <linearGradient id="a" x1="26.25" x2="2.188" y1="1.313" y2="25.813" gradientUnits="userSpaceOnUse">
      <stop stop-color="#ff4357"/>
      <stop offset="1" stop-color="#b0002c"/>
    </linearGradient>
  </defs>
</svg>